<svg xmlns="http://www.w3.org/2000/svg" width="21" height="21" viewBox="0 0 21 21" fill="none">
<g clip-path="url(#clip0_502_40203)">
<path fill-rule="evenodd" clip-rule="evenodd" d="M10.8333 8.74088C12.4901 8.74088 13.8332 7.39779 13.8332 5.74101C13.8332 4.08422 12.4901 2.74113 10.8333 2.74113C9.17646 2.74113 7.83341 4.08422 7.83341 5.74101C7.83341 7.39779 9.17646 8.74088 10.8333 8.74088ZM10.8333 10.7408C13.5946 10.7408 15.8331 8.50231 15.8331 5.74101C15.8331 2.9797 13.5946 0.741211 10.8333 0.741211C8.07198 0.741211 5.8335 2.9797 5.8335 5.74101C5.8335 8.50231 8.07198 10.7408 10.8333 10.7408Z" fill="black"/>
<path fill-rule="evenodd" clip-rule="evenodd" d="M7.83325 14.7421C5.6242 14.7421 3.83341 16.5329 3.83341 18.7419V19.7419C3.83341 20.2942 3.38571 20.7419 2.83346 20.7419C2.2812 20.7419 1.8335 20.2942 1.8335 19.7419V18.7419C1.8335 15.4284 4.51968 12.7422 7.83325 12.7422H13.833C17.1466 12.7422 19.8328 15.4284 19.8328 18.7419V19.7419C19.8328 20.2942 19.3851 20.7419 18.8328 20.7419C18.2805 20.7419 17.8328 20.2942 17.8328 19.7419V18.7419C17.8328 16.5329 16.042 14.7421 13.833 14.7421H7.83325Z" fill="black"/>
</g>
<defs>
<clipPath id="clip0_502_40203">
<rect width="20" height="20" fill="white" transform="translate(0.833252 0.741211)"/>
</clipPath>
</defs>
</svg>