<svg xmlns="http://www.w3.org/2000/svg" width="20" height="20" viewBox="0 0 20 20" fill="none">
<path d="M7.9088 19.016C6.81067 19.016 5.91724 18.1226 5.91724 17.0245C5.91724 15.9263 6.81067 15.0332 7.9088 15.0332C9.00692 15.0332 9.90036 15.9263 9.90036 17.0245C9.90036 18.1226 9.00692 19.016 7.9088 19.016ZM7.9088 16.2832C7.50005 16.2832 7.16724 16.6157 7.16724 17.0245C7.16724 17.4335 7.49974 17.766 7.9088 17.766C8.31786 17.766 8.65036 17.4335 8.65036 17.0245C8.65036 16.6157 8.31786 16.2832 7.9088 16.2832Z" fill="black"/>
<path d="M14.8318 19.016C13.7337 19.016 12.8406 18.1226 12.8406 17.0245C12.8406 15.9263 13.7337 15.0332 14.8318 15.0332C15.93 15.0332 16.8234 15.9263 16.8234 17.0245C16.8234 18.1226 15.9296 19.016 14.8318 19.016ZM14.8318 16.2832C14.4231 16.2832 14.0906 16.6157 14.0906 17.0245C14.0906 17.4335 14.4231 17.766 14.8318 17.766C15.2409 17.766 15.5734 17.4335 15.5734 17.0245C15.5734 16.6157 15.2406 16.2832 14.8318 16.2832Z" fill="black"/>
<path d="M16.2901 13.4896H6.47168C5.51637 13.4896 4.70043 12.8393 4.4873 11.908L2.44949 3.00898C2.42262 2.89148 2.34137 2.79086 2.23199 2.74023L0.541679 1.9568C0.150429 1.77555 -0.0198839 1.31117 0.161366 0.919608C0.342616 0.528358 0.807304 0.358046 1.19855 0.539296L2.88887 1.32273C3.43355 1.57492 3.83887 2.07492 3.97262 2.66023L6.01043 11.5599C6.0598 11.7762 6.24949 11.9274 6.47168 11.9274H16.2901C16.5114 11.9274 16.7007 11.7771 16.7514 11.5615L18.3357 4.74492C18.3811 4.55117 18.2986 4.41023 18.2457 4.34367C18.1926 4.2768 18.0739 4.16492 17.8751 4.16492H6.31262C5.88105 4.16492 5.53137 3.81523 5.53137 3.38367C5.53137 2.95211 5.88105 2.60242 6.31262 2.60242H17.8751C18.4998 2.60242 19.0804 2.88273 19.4692 3.3718C19.8579 3.86086 19.9992 4.49023 19.8579 5.09867L18.2732 11.9155C18.0573 12.8421 17.242 13.4896 16.2901 13.4896Z" fill="black"/>
</svg>