<svg xmlns="http://www.w3.org/2000/svg" width="25" height="25" viewBox="0 0 25 25" fill="none">
<g clip-path="url(#clip0_486_39623)">
<path d="M24.8227 7.17301C24.7665 5.8978 24.5602 5.0211 24.2648 4.26143C23.9601 3.45506 23.4913 2.73312 22.877 2.13296C22.2768 1.52347 21.5501 1.04986 20.7531 0.74988C19.989 0.454473 19.1169 0.248256 17.8417 0.192031C16.557 0.131045 16.1491 0.116943 12.8907 0.116943C9.63222 0.116943 9.22436 0.131045 7.94439 0.18727C6.66918 0.243494 5.79248 0.449894 5.03299 0.745118C4.22644 1.04986 3.50449 1.51871 2.90434 2.13296C2.29485 2.73312 1.82143 3.45982 1.52126 4.25685C1.22585 5.0211 1.01963 5.89304 0.963409 7.16825C0.902423 8.45298 0.888321 8.86084 0.888321 12.1193C0.888321 15.3777 0.902423 15.7856 0.958647 17.0656C1.01487 18.3408 1.22127 19.2175 1.51668 19.9771C1.82143 20.7835 2.29485 21.5055 2.90434 22.1056C3.50449 22.7151 4.2312 23.1887 5.02823 23.4887C5.79248 23.7841 6.66441 23.9903 7.93981 24.0465C9.2196 24.103 9.62764 24.1169 12.8861 24.1169C16.1445 24.1169 16.5524 24.103 17.8324 24.0465C19.1076 23.9903 19.9843 23.7841 20.7438 23.4887C22.3567 22.8651 23.6319 21.5899 24.2555 19.9771C24.5507 19.2129 24.7571 18.3408 24.8134 17.0656C24.8696 15.7856 24.8837 15.3777 24.8837 12.1193C24.8837 8.86084 24.8789 8.45298 24.8227 7.17301ZM22.6614 16.9718C22.6098 18.1439 22.4129 18.7768 22.2488 19.1988C21.8455 20.2444 21.0157 21.0742 19.9702 21.4774C19.5482 21.6415 18.9107 21.8384 17.7432 21.8899C16.4773 21.9463 16.0977 21.9602 12.8954 21.9602C9.6932 21.9602 9.30879 21.9463 8.0475 21.8899C6.87539 21.8384 6.24246 21.6415 5.8205 21.4774C5.30019 21.2851 4.82659 20.9804 4.44218 20.5819C4.04366 20.1927 3.73892 19.7239 3.54662 19.2036C3.38252 18.7816 3.18565 18.1439 3.13418 16.9766C3.07778 15.7107 3.06386 15.3309 3.06386 12.1286C3.06386 8.9264 3.07778 8.54199 3.13418 7.28088C3.18565 6.10878 3.38252 5.47584 3.54662 5.05388C3.73892 4.53339 4.04366 4.05997 4.44694 3.67538C4.83593 3.27686 5.30477 2.97212 5.82526 2.78C6.24722 2.61591 6.88492 2.41903 8.05226 2.36738C9.31813 2.31116 9.69797 2.29706 12.9 2.29706C16.107 2.29706 16.4866 2.31116 17.7479 2.36738C18.92 2.41903 19.553 2.61591 19.9749 2.78C20.4952 2.97212 20.9688 3.27686 21.3533 3.67538C21.7518 4.06455 22.0565 4.53339 22.2488 5.05388C22.4129 5.47584 22.6098 6.11335 22.6614 7.28088C22.7177 8.54675 22.7318 8.9264 22.7318 12.1286C22.7318 15.3309 22.7177 15.7059 22.6614 16.9718Z" fill="white"/>
<path d="M12.8907 5.9541C9.48699 5.9541 6.7254 8.71551 6.7254 12.1194C6.7254 15.5232 9.48699 18.2846 12.8907 18.2846C16.2945 18.2846 19.0559 15.5232 19.0559 12.1194C19.0559 8.71551 16.2945 5.9541 12.8907 5.9541ZM12.8907 16.1186C10.6825 16.1186 8.89141 14.3277 8.89141 12.1194C8.89141 9.91105 10.6825 8.12011 12.8907 8.12011C15.099 8.12011 16.8899 9.91105 16.8899 12.1194C16.8899 14.3277 15.099 16.1186 12.8907 16.1186Z" fill="white"/>
<path d="M20.7392 5.7103C20.7392 6.50514 20.0947 7.14961 19.2997 7.14961C18.5049 7.14961 17.8604 6.50514 17.8604 5.7103C17.8604 4.91529 18.5049 4.271 19.2997 4.271C20.0947 4.271 20.7392 4.91529 20.7392 5.7103Z" fill="white"/>
</g>
<defs>
<clipPath id="clip0_486_39623">
<rect width="24" height="24" fill="white" transform="translate(0.846161 0.116943)"/>
</clipPath>
</defs>
</svg>