<svg xmlns="http://www.w3.org/2000/svg" width="21" height="21" viewBox="0 0 21 21" fill="none">
<path d="M8.54937 16.8325C10.337 16.8325 12.0735 16.2361 13.4838 15.1376L18.8044 20.4583C19.2019 20.8421 19.8353 20.8311 20.2191 20.4337C20.5936 20.0459 20.5936 19.4313 20.2191 19.0436L14.8985 13.723C17.6242 10.2142 16.9895 5.16009 13.4807 2.43434C9.97194 -0.291418 4.91791 0.343316 2.19215 3.8521C-0.533605 7.36088 0.101129 12.415 3.60991 15.1407C5.02252 16.2381 6.76057 16.8334 8.54937 16.8325ZM4.27429 4.5134C6.63538 2.15227 10.4635 2.15222 12.8246 4.51331C15.1857 6.8744 15.1858 10.7025 12.8247 13.0636C10.4636 15.4247 6.63551 15.4248 4.27437 13.0637C4.27433 13.0637 4.27433 13.0637 4.27429 13.0636C1.9132 10.7197 1.89929 6.9056 4.24317 4.54451C4.25353 4.53411 4.26389 4.52376 4.27429 4.5134Z" fill="black"/>
</svg>